<svg width="65" height="64" viewBox="0 0 65 64" fill="none" xmlns="http://www.w3.org/2000/svg">
<g clip-path="url(#clip0_1442_25)">
<g clip-path="url(#clip1_1442_25)">
<path d="M26.2656 52.6082C26.4442 52.2433 26.6234 51.9009 26.8098 51.6136L45.7309 21.716H45.7301L49.876 15.1711C50.5389 14.1252 51.7331 13.6183 52.8884 13.7612V10.0937H5.5293V51.366C5.5293 53.9272 7.62628 56.0242 10.1876 56.0242H25.0692C25.3339 54.893 25.7702 53.6369 26.2656 52.6082Z" fill="#F2F8FD"/>
<path d="M25.7151 17.9801C25.7151 16.2714 24.3184 14.8746 22.6096 14.8746H14.8458C13.137 14.8746 11.7403 16.2714 11.7403 17.9801V25.7439C11.7403 27.4527 13.137 28.8495 14.8458 28.8495H22.6096C24.3184 28.8495 25.7151 27.4527 25.7151 25.7439V17.9801Z" fill="#306FD5"/>
<path d="M25.7151 36.6133C25.7151 34.9052 24.3176 33.5078 22.6096 33.5078H14.8458C13.1378 33.5078 11.7403 34.9052 11.7403 36.6133V44.3771C11.7403 46.0851 13.1378 47.4826 14.8458 47.4826H22.6096C24.3176 47.4826 25.7151 46.0851 25.7151 44.3771V36.6133Z" fill="#9BD0FF"/>
<path d="M52.8884 28.8588L35.8623 55.7634L36.2901 56.0227H48.2299C50.7912 56.0227 52.8882 53.9257 52.8882 51.3644V28.8588" fill="#F2F8FD"/>
<path d="M23.6918 19.2099C23.8362 19.5857 23.7842 20.0251 23.5132 20.3605L19.4163 25.3985C19.2192 25.6399 18.9341 25.7929 18.6244 25.8225C18.4187 25.8426 18.2153 25.8023 18.0297 25.7177L21.1601 28.8488H22.6088C24.3176 28.8488 25.7144 27.4521 25.7144 25.7433V21.2318L23.6918 19.2099Z" fill="#306FD5"/>
<path d="M14.8761 23.1485L17.7666 25.5583C18.0058 25.7579 18.3156 25.8534 18.6246 25.8231C18.9336 25.7935 19.2193 25.6406 19.4164 25.3991L23.5134 20.3611C23.9179 19.8619 23.8433 19.1291 23.3441 18.723C22.8442 18.3177 22.1121 18.393 21.706 18.8914L18.3536 23.0147L16.3684 21.3595C15.8739 20.9479 15.1386 21.0148 14.7278 21.5085C14.3155 22.0026 14.3815 22.737 14.8761 23.1485Z" fill="#0C1D3E"/>
<path d="M52.8884 0H5.5293V10.0929H52.8884V0Z" fill="#306FD5"/>
<path d="M46.0236 17.8986C46.0936 17.7861 46.2177 17.7216 46.3544 17.7209C46.4273 17.7216 46.4925 17.7388 46.5586 17.7806L47.7465 18.5329L48.9934 16.5648L47.8033 15.8118C47.3553 15.5284 46.8492 15.391 46.3545 15.3917C45.4587 15.391 44.5719 15.8374 44.054 16.6556L44.0548 16.6541L36.9696 27.8503C36.6257 28.3938 36.7879 29.1127 37.3306 29.4574C37.8733 29.8013 38.5938 29.639 38.9377 29.0963L46.0221 17.9001L46.0236 17.8986Z" fill="#0C1D3E"/>
<path d="M45.731 21.7162L54.0678 26.9948L35.1481 56.8931C34.9618 57.1803 34.7366 57.4909 34.4812 57.8101L26.2656 52.6083C26.4442 52.2435 26.6234 51.9019 26.8098 51.6137L45.731 21.7162Z" fill="#0C1D3E"/>
<path d="M26.2656 52.6074L34.4797 57.8092C33.4789 59.0591 31.9961 60.4178 30.8315 61.1242L26.7012 63.6086C25.2416 64.4937 24.1865 63.8261 24.3566 62.1258L24.8379 57.3277C24.9776 55.9692 25.5676 54.0593 26.2656 52.6074Z" fill="#306FD5"/>
<path d="M57.2516 16.1641C58.6956 17.0724 59.1304 19.0057 58.2136 20.442L54.0677 26.9946L45.7301 21.7153L49.876 15.1703C50.7922 13.7263 52.7175 13.2915 54.1615 14.2076L57.2516 16.1641Z" fill="#306FD5"/>
</g>
</g>
<defs>
<clipPath id="clip0_1442_25">
<rect width="64" height="64" fill="white" transform="translate(0.111755)"/>
</clipPath>
<clipPath id="clip1_1442_25">
<rect width="64" height="64" fill="white" transform="translate(0.111755)"/>
</clipPath>
</defs>
</svg>
