<svg width="65" height="64" viewBox="0 0 65 64" fill="none" xmlns="http://www.w3.org/2000/svg">
<g clip-path="url(#clip0_1442_67)">
<path d="M32.4078 10.6667C18.3339 10.6667 6.88403 22.1165 6.88403 36.1905C6.88403 50.2645 18.3339 61.7143 32.4078 61.7143C46.4818 61.7143 57.9317 50.2645 57.9317 36.1905C57.9317 22.1165 46.4818 10.6667 32.4078 10.6667Z" fill="#F2F8FD"/>
<path d="M18.3324 24.4937L21.0264 27.187C21.4729 27.6335 22.1959 27.6335 22.6425 27.187C23.0889 26.7406 23.0889 26.0168 22.6425 25.5702L19.9485 22.8769C19.502 22.4312 18.7782 22.4312 18.3324 22.8769C17.886 23.3242 17.886 24.0481 18.3324 24.4937Z" fill="#9BD0FF"/>
<path d="M13.8037 37.7158L17.6132 37.7143C18.2448 37.7143 18.7561 37.2022 18.7561 36.5714C18.7561 35.9399 18.244 35.4286 17.6125 35.4286L13.8029 35.4301C13.1721 35.4301 12.6608 35.9421 12.6608 36.5729C12.6608 37.2039 13.1727 37.7158 13.8037 37.7158Z" fill="#9BD0FF"/>
<path d="M19.9492 50.2666L22.6425 47.5718C23.089 47.1254 23.089 46.4016 22.6425 45.955C22.1961 45.5086 21.4723 45.5093 21.0265 45.955L18.3332 48.6498C17.8867 49.0962 17.8867 49.8201 18.3332 50.2666C18.7798 50.7131 19.5036 50.7131 19.9492 50.2666Z" fill="#9BD0FF"/>
<path d="M33.1697 54.7962V50.9851C33.1697 50.3536 32.6577 49.8423 32.0269 49.8423C31.3961 49.8423 30.884 50.3536 30.884 50.9851V54.7962C30.884 55.427 31.3961 55.939 32.0269 55.939C32.6577 55.939 33.1697 55.4271 33.1697 54.7962Z" fill="#9BD0FF"/>
<path d="M45.7222 48.6506L43.0274 45.9558C42.5809 45.5094 41.8579 45.5094 41.4113 45.9558C40.9649 46.4015 40.9649 47.1253 41.4113 47.5719L44.1061 50.2667C44.5525 50.7131 45.2756 50.7131 45.7222 50.2667C46.1687 49.8202 46.1686 49.0964 45.7222 48.6506Z" fill="#9BD0FF"/>
<path d="M32.4078 10.6667C32.2798 10.6667 32.1541 10.6743 32.0269 10.6767V16.381C32.6577 16.381 33.1697 16.8923 33.1697 17.5238V21.3348C33.1697 21.9656 32.6577 22.4777 32.0269 22.4777V32.0274C32.1533 32.0159 32.2783 32 32.4078 32C34.7216 32 36.5983 33.8767 36.5983 36.1905C36.5983 36.3192 36.5907 36.4457 36.5792 36.5714H44.5983C44.5998 35.9414 45.1103 35.4301 45.7404 35.4301L49.5499 35.4286C50.1816 35.4286 50.6935 35.9399 50.6935 36.5714H57.9216C57.9239 36.4442 57.9316 36.3185 57.9316 36.1905C57.9316 22.1165 46.4818 10.6667 32.4078 10.6667ZM45.7213 24.493L43.0273 27.1871C42.5809 27.6335 41.8578 27.6335 41.4112 27.1871C40.9648 26.7406 40.9648 26.0168 41.4112 25.571L44.1053 22.877C44.5517 22.4305 45.2748 22.4305 45.7213 22.877C46.1678 23.3234 46.1678 24.0472 45.7213 24.493Z" fill="#306FD5"/>
<path d="M55.4486 20.6141L57.147 18.915C58.3318 17.7295 58.3318 15.7897 57.1462 14.6042L53.9873 11.4452C52.8017 10.2597 50.8628 10.2604 49.6787 11.446L47.9797 13.1458C43.9309 10.4052 39.1211 8.70476 33.9317 8.42426V6.09524H38.1221C39.7983 6.09524 41.1698 4.72381 41.1698 3.04762C41.1698 1.37143 39.7983 0 38.1221 0H25.9317C24.2555 0 22.884 1.37143 22.884 3.04762C22.884 4.72381 24.2555 6.09524 25.9317 6.09524H30.1221V8.48229C15.8326 9.64568 4.59833 21.6015 4.59833 36.1905C4.59833 51.5497 17.0479 64 32.4079 64C47.7671 64 60.2174 51.5497 60.2174 36.1905C60.2174 30.419 58.4581 25.0583 55.4486 20.6141ZM32.4079 61.7143C18.3339 61.7143 6.88404 50.2644 6.88404 36.1905C6.88404 22.1165 18.3339 10.6667 32.4079 10.6667C46.4818 10.6667 57.9317 22.1165 57.9317 36.1905C57.9317 50.2644 46.4818 61.7143 32.4079 61.7143Z" fill="#9BD0FF"/>
<path d="M32.4078 40.381C34.7222 40.381 36.5983 38.5048 36.5983 36.1905C36.5983 33.8761 34.7222 32 32.4078 32C30.0935 32 28.2173 33.8761 28.2173 36.1905C28.2173 38.5048 30.0935 40.381 32.4078 40.381Z" fill="#0C1D3E"/>
<path d="M45.7411 37.7158L49.5506 37.7143C50.1823 37.7143 50.6935 37.2022 50.6935 36.5714C50.6935 35.9399 50.1815 35.4286 49.5499 35.4286L45.7404 35.4301C45.1096 35.4301 44.5983 35.9421 44.5983 36.5729C44.5983 37.2039 45.1103 37.7158 45.7411 37.7158Z" fill="#0C1D3E"/>
<path d="M33.1697 21.3348V17.5238C33.1697 16.8923 32.6577 16.381 32.0269 16.381C31.3961 16.381 30.884 16.8923 30.884 17.5238V21.3348C30.884 21.9657 31.3961 22.4777 32.0269 22.4777C32.6577 22.4777 33.1697 21.9658 33.1697 21.3348Z" fill="#0C1D3E"/>
<path d="M44.1053 22.8769L41.4112 25.571C40.9648 26.0167 40.9648 26.7405 41.4112 27.1871C41.8577 27.6335 42.5807 27.6335 43.0272 27.1871L45.7212 24.493C46.1676 24.0466 46.1676 23.3228 45.7212 22.8769C45.2749 22.4305 44.5511 22.4305 44.1053 22.8769Z" fill="#0C1D3E"/>
</g>
<defs>
<clipPath id="clip0_1442_67">
<rect width="64" height="64" fill="white" transform="translate(0.407837)"/>
</clipPath>
</defs>
</svg>
