<svg width="65" height="64" viewBox="0 0 65 64" fill="none" xmlns="http://www.w3.org/2000/svg">
<g clip-path="url(#clip0_1442_12)">
<path d="M62.9153 50.7539C62.8305 49.8988 62.0671 49.2755 61.212 49.3611L57.5837 49.726C60.2853 45.2637 61.843 40.0256 61.843 34.4336C61.843 27.5639 59.4947 21.2271 55.56 16.2092C51.6252 11.1891 46.1023 7.47296 39.7422 5.81786C38.9097 5.6016 38.0601 6.10037 37.8444 6.9321C37.6282 7.76383 38.1269 8.61349 38.9586 8.82989C44.6426 10.3083 49.5872 13.6338 53.1105 18.1288C56.6321 22.6252 58.7306 28.2765 58.7314 34.4336C58.7306 39.4577 57.3331 44.1432 54.9048 48.1411L53.6895 44.4918C53.4179 43.6764 52.5371 43.2352 51.7209 43.5068C50.9062 43.7783 50.4658 44.6591 50.7366 45.4745L53.3362 53.2802L61.524 52.457C62.3776 52.3714 63.0017 51.609 62.9153 50.7539Z" fill="#0C1D3E"/>
<path d="M52.1164 54.267C51.543 53.6266 50.5587 53.5722 49.919 54.1455C45.2326 58.3402 39.0593 60.8877 32.2752 60.8884C22.4869 60.8899 13.9576 55.5648 9.37933 47.664L13.5989 47.9394C14.4571 47.9955 15.197 47.3457 15.2531 46.4882C15.3092 45.6301 14.6603 44.8901 13.8027 44.8341L5.5924 44.2979L3.26666 52.1915C3.02305 53.0163 3.49538 53.8816 4.32011 54.1243C5.14485 54.367 6.01017 53.8955 6.25286 53.0708H6.2521L7.15313 50.0121C12.3671 58.4062 21.6659 63.9982 32.2751 63.9997C39.8459 64.0005 46.7669 61.1472 51.9948 56.4632C52.6346 55.8908 52.6897 54.9072 52.1164 54.267Z" fill="#306FD5"/>
<path d="M36.2846 6.29259L30.4794 0.458478C29.8733 -0.150768 28.8883 -0.153048 28.279 0.453007C27.6698 1.05906 27.6682 2.04413 28.2743 2.65337H28.2735L30.53 4.92152C15.0134 5.8265 2.70877 18.6906 2.70801 34.4336C2.70801 36.8783 3.00526 39.2561 3.56694 41.5313C3.7724 42.3654 4.61583 42.8758 5.44984 42.6697C6.284 42.4635 6.79432 41.6208 6.58825 40.7868C6.08644 38.7521 5.8211 36.6256 5.8211 34.4337C5.82186 27.1237 8.7801 20.52 13.57 15.727C18.1934 11.1052 24.5076 8.19753 31.5119 7.99754L29.2445 11.5635C28.7823 12.2887 28.9971 13.2504 29.7215 13.7117C30.4475 14.1731 31.4091 13.9584 31.8705 13.2332L36.2846 6.29259Z" fill="#9BD0FF"/>
<path d="M36.8619 21.6239C36.7607 21.2092 36.336 20.7914 35.9181 20.6965L33.2025 20.2857C32.7753 20.2553 32.2463 20.5308 32.0261 20.898C32.0261 20.898 31.0146 22.5848 29.611 22.935C28.2058 23.2836 26.5236 22.2658 26.5236 22.2658C26.1571 22.0441 25.5603 22.0479 25.1986 22.2751L22.9888 23.9083C22.6651 24.1876 22.4846 24.7557 22.5873 25.1712C22.5873 25.1712 23.0666 27.0783 22.3197 28.3177C21.5735 29.5557 19.6632 30.0265 19.6632 30.0265C19.247 30.1292 18.8308 30.5547 18.735 30.9719L18.325 33.6867C18.2963 34.1138 18.5701 34.6438 18.9373 34.8631C18.9373 34.8631 20.6242 35.8746 20.9705 37.2791C21.3199 38.6811 20.3021 40.365 20.3021 40.365C20.0804 40.7314 20.0842 41.3274 20.3114 41.6907L21.9454 43.899C22.2247 44.2235 22.7928 44.404 23.2082 44.3005C23.2082 44.3005 25.1168 43.8235 26.3555 44.5689C27.5942 45.3151 28.0643 47.2276 28.0643 47.2276C28.167 47.6431 28.5925 48.0601 29.0089 48.1558L31.7245 48.5651C32.1516 48.5947 32.6807 48.32 32.9009 47.9528C32.9009 47.9528 33.9139 46.2682 35.316 45.9196C36.7205 45.5687 38.4041 46.5887 38.4041 46.5887C38.7707 46.8112 39.3666 46.8074 39.7292 46.5802L41.9374 44.9478C42.2626 44.6692 42.4424 44.1011 42.3389 43.6856C42.3389 43.6856 41.8619 41.7746 42.6065 40.5352C43.3559 39.2957 45.266 38.8264 45.266 38.8264C45.6823 38.7237 46.0994 38.2997 46.1942 37.8818L46.6043 35.167C46.6347 34.7398 46.3599 34.2108 45.9935 33.9906C45.9935 33.9906 44.3034 32.9776 43.9557 31.5738C43.6071 30.1702 44.6273 28.4864 44.6273 28.4864C44.8475 28.1208 44.8428 27.524 44.6163 27.1606L42.9824 24.9524C42.7038 24.6279 42.1357 24.4481 41.7195 24.5516C41.7195 24.5516 39.8117 25.0309 38.573 24.2832C37.3312 23.5349 36.8619 21.6239 36.8619 21.6239Z" fill="#306FD5"/>
<path d="M35.3145 29.6895C37.928 31.2667 38.7715 34.6623 37.199 37.2759C35.6219 39.891 32.2278 40.7344 29.6127 39.1588C26.9992 37.5839 26.1557 34.1875 27.7281 31.574C29.3045 28.9598 32.7024 28.1179 35.3145 29.6895Z" fill="#0C1D3E"/>
<path d="M36.7749 30.9664C38.1824 32.7225 38.4268 35.2373 37.1989 37.2758C36.1594 38.9986 34.3324 39.9525 32.4588 39.9525C31.4877 39.9525 30.5051 39.6966 29.6125 39.1589C29.3784 39.0173 29.1582 38.8609 28.9512 38.692L36.1088 45.8481C37.2821 45.9088 38.4019 46.5866 38.4019 46.5866C38.5824 46.6963 38.8181 46.7507 39.0555 46.7507C39.2991 46.7507 39.5433 46.6931 39.727 46.5779L41.9353 44.9454C42.1999 44.719 42.3687 44.3012 42.3655 43.93C42.3655 43.8444 42.3563 43.7611 42.3368 43.6833C42.3368 43.6833 42.1859 43.0788 42.1867 42.3287C42.1867 41.7451 42.2784 41.0745 42.6044 40.5321C43.1149 39.6855 44.1699 39.1984 44.7861 38.9744L36.7749 30.9664Z" fill="#306FD5"/>
</g>
<defs>
<clipPath id="clip0_1442_12">
<rect width="64" height="64" fill="white" transform="translate(0.815674)"/>
</clipPath>
</defs>
</svg>
