<svg width="64" height="64" viewBox="0 0 64 64" fill="none" xmlns="http://www.w3.org/2000/svg">
<path d="M59.5451 13.7721C59.5451 11.0987 57.3578 8.91138 54.6843 8.91138H18.2271C15.5536 8.91138 13.3663 11.0987 13.3663 13.7721V59.1392C13.3663 61.8126 15.5536 64 18.2271 64H45.769L59.5411 51.038L59.5451 13.7721Z" fill="#F2F8FD"/>
<path d="M13.3663 13.7722C13.3663 11.0987 15.5536 8.91139 18.2271 8.91139H50.6337V4.86076C50.6337 2.18734 48.4464 0 45.7729 0H9.31567C6.64225 0 4.45491 2.18734 4.45491 4.86076V50.2278C4.45491 52.9013 6.64225 55.0886 9.31567 55.0886H13.3663V13.7722Z" fill="#306FD5"/>
<path d="M50.6305 51.038H59.5419L45.7698 64V55.8987C45.7698 53.2253 47.9571 51.038 50.6305 51.038Z" fill="#9BD0FF"/>
<path d="M25.5182 30.3797H47.3916C48.0633 30.3797 48.6068 29.8353 48.6068 29.1645C48.6068 28.493 48.0631 27.9493 47.3916 27.9493H25.5182C24.8467 27.9493 24.303 28.493 24.303 29.1645C24.303 29.8353 24.8465 30.3797 25.5182 30.3797Z" fill="#0C1D3E"/>
<path d="M25.5182 22.2785H47.3916C48.0633 22.2785 48.6068 21.734 48.6068 21.0633C48.6068 20.3918 48.0631 19.8481 47.3916 19.8481H25.5182C24.8467 19.8481 24.303 20.3918 24.303 21.0633C24.303 21.734 24.8465 22.2785 25.5182 22.2785Z" fill="#0C1D3E"/>
<path d="M25.5182 38.481H47.3916C48.0633 38.481 48.6068 37.9365 48.6068 37.2658C48.6068 36.5943 48.0631 36.0506 47.3916 36.0506H25.5182C24.8467 36.0506 24.303 36.5943 24.303 37.2658C24.303 37.9365 24.8465 38.481 25.5182 38.481Z" fill="#0C1D3E"/>
<path d="M25.5182 46.5822H37.6701C38.3416 46.5822 38.8853 46.0378 38.8853 45.367C38.8853 44.6954 38.3416 44.1519 37.6701 44.1519H25.5182C24.8467 44.1519 24.303 44.6954 24.303 45.367C24.303 46.0378 24.8465 46.5822 25.5182 46.5822Z" fill="#0C1D3E"/>
</svg>
