<svg width="65" height="64" viewBox="0 0 65 64" fill="none" xmlns="http://www.w3.org/2000/svg">
<g clip-path="url(#clip0_1442_43)">
<g clip-path="url(#clip1_1442_43)">
<path d="M8.23333 39.9059C12.3917 39.9059 15.7627 36.5348 15.7627 32.3765C15.7627 28.2181 12.3917 24.847 8.23333 24.847C4.07495 24.847 0.703918 28.2181 0.703918 32.3765C0.703918 36.5348 4.07495 39.9059 8.23333 39.9059Z" fill="#9BD0FF"/>
<path d="M44.3745 18.0706C48.5329 18.0706 51.9039 14.6996 51.9039 10.5412C51.9039 6.38281 48.5329 3.01178 44.3745 3.01178C40.2161 3.01178 36.8451 6.38281 36.8451 10.5412C36.8451 14.6996 40.2161 18.0706 44.3745 18.0706Z" fill="#9BD0FF"/>
<path d="M45.1274 60.2353C49.2858 60.2353 52.6568 56.8643 52.6568 52.7059C52.6568 48.5475 49.2858 45.1765 45.1274 45.1765C40.9691 45.1765 37.598 48.5475 37.598 52.7059C37.598 56.8643 40.9691 60.2353 45.1274 60.2353Z" fill="#9BD0FF"/>
<path d="M32.3274 41.4117C37.7333 41.4117 42.1157 37.0294 42.1157 31.6235C42.1157 26.2176 37.7333 21.8353 32.3274 21.8353C26.9216 21.8353 22.5392 26.2176 22.5392 31.6235C22.5392 37.0294 26.9216 41.4117 32.3274 41.4117Z" fill="#306FD5"/>
<path d="M24.6634 47.345L28.6547 40.6928C27.9484 40.4066 27.2866 40.0393 26.6736 39.6049L22.6469 46.315C23.3757 46.5559 24.0526 46.906 24.6634 47.345Z" fill="#0C1D3E"/>
<path d="M23.9104 16.655C23.2991 17.0933 22.6229 17.4434 21.8941 17.685L25.8583 24.2906C26.4238 23.7914 27.042 23.3509 27.7129 22.9911L23.9104 16.655Z" fill="#0C1D3E"/>
<path d="M49.7392 32.753C49.6835 32.3833 49.6451 32.0083 49.6451 31.6236C49.6451 31.2388 49.6835 30.8631 49.7392 30.4941H42.045C42.0886 30.8653 42.1157 31.2411 42.1157 31.6236C42.1157 32.0061 42.0886 32.3818 42.045 32.753H49.7392Z" fill="#0C1D3E"/>
<path d="M19.5275 18.0706C23.6858 18.0706 27.0569 14.6996 27.0569 10.5412C27.0569 6.38281 23.6858 3.01178 19.5275 3.01178C15.3691 3.01178 11.998 6.38281 11.998 10.5412C11.998 14.6996 15.3691 18.0706 19.5275 18.0706Z" fill="#306FD5"/>
<path d="M57.1745 39.1529C61.3329 39.1529 64.7039 35.7819 64.7039 31.6235C64.7039 27.4651 61.3329 24.0941 57.1745 24.0941C53.0161 24.0941 49.6451 27.4651 49.6451 31.6235C49.6451 35.7819 53.0161 39.1529 57.1745 39.1529Z" fill="#306FD5"/>
<path d="M20.2804 60.9883C24.4388 60.9883 27.8098 57.6172 27.8098 53.4589C27.8098 49.3005 24.4388 45.9294 20.2804 45.9294C16.122 45.9294 12.751 49.3005 12.751 53.4589C12.751 57.6172 16.122 60.9883 20.2804 60.9883Z" fill="#306FD5"/>
</g>
</g>
<defs>
<clipPath id="clip0_1442_43">
<rect width="64" height="64" fill="white" transform="translate(0.703918)"/>
</clipPath>
<clipPath id="clip1_1442_43">
<rect width="64" height="64" fill="white" transform="translate(0.703918)"/>
</clipPath>
</defs>
</svg>
