<svg width="101" height="78" viewBox="0 0 101 78" fill="none" xmlns="http://www.w3.org/2000/svg">
<path d="M69.8517 44.4438H65.7068V48.6637H69.8517V44.4438Z" fill="#306FD5"/>
<path d="M75.8329 44.4438H71.6656V48.6637H75.8329V44.4438Z" fill="#306FD5"/>
<path d="M70.7212 12.004C63.3832 12.004 57.1471 14.6123 51.9603 19.7991C46.7661 24.9859 44.1652 31.2295 44.1652 38.5375C44.1652 42.7798 45.0347 46.6924 46.826 50.1927V50.2976C46.826 50.2976 46.8035 50.3501 46.8035 50.425L43.8354 53.3632L47.4406 56.9685L70.6762 33.7329L94.0166 57.0509L97.7268 53.3707L95.3508 50.9947L94.7587 50.4325C94.7062 50.3801 94.7062 50.3276 94.6837 50.3276V50.3051C94.6837 50.3051 94.7062 50.2302 94.7062 50.2002C96.4452 46.6474 97.3146 42.7648 97.3146 38.5449C97.3146 31.2295 94.7062 24.9934 89.5419 19.8066C84.3477 14.6198 78.0666 12.0115 70.7287 12.0115L70.7212 12.004ZM51.0384 46.1302C51.0159 46.1827 50.9635 46.1827 50.9335 46.1827H50.836C50.7836 46.1302 50.7611 46.0778 50.7611 46.0778C49.8916 43.7242 49.4344 41.2208 49.4344 38.5375C49.4344 32.6611 51.5331 27.6467 55.723 23.5018C59.8379 19.3119 64.8523 17.2432 70.7287 17.2432C76.605 17.2432 81.6718 19.3119 85.8392 23.5018C89.9766 27.6467 92.0229 32.6536 92.0229 38.5375C92.0229 41.1683 91.6407 43.6493 90.8761 45.9503C90.8462 45.9728 90.8236 46.0253 90.8236 46.0778L90.7187 46.3326L86.8586 42.495V33.9278H81.7468V37.3757L70.8036 26.41L51.0384 46.1227V46.1302Z" fill="#306FD5"/>
<path d="M86.4689 52.9585C86.3415 53.0859 86.214 53.1908 86.109 53.3182L86.0791 53.3407C84.4676 54.9222 82.8861 56.1815 81.3495 57.0509C78.2015 58.8123 74.7011 59.7118 70.841 59.7118C66.981 59.7118 63.5331 58.8198 60.4375 57.0509C58.8035 56.1065 57.2671 54.9297 55.8355 53.5206C55.783 53.4682 55.7305 53.4157 55.708 53.3707C55.4757 53.1683 55.2957 52.9585 55.1159 52.7786L51.4057 56.4888C51.5631 56.6911 51.7355 56.8485 51.9453 57.0509C51.9978 57.1034 52.0428 57.1559 52.1252 57.2008C57.2895 62.3876 63.5256 64.996 70.841 64.996C78.1565 64.996 84.4377 62.3876 89.6544 57.2008C89.7069 57.1484 89.7593 57.0959 89.7818 57.0509C89.8867 56.946 89.9842 56.8186 90.0891 56.6911L86.4614 52.9585H86.4689Z" fill="#306FD5"/>
<path d="M75.8329 54.6974V50.4775H71.6656V54.6974H75.8329Z" fill="#306FD5"/>
<path d="M69.8517 54.6974V50.4775H65.7068V54.6974H69.8517Z" fill="#306FD5"/>
</svg>
