<svg width="25" height="25" viewBox="0 0 25 25" fill="none" xmlns="http://www.w3.org/2000/svg">
<path d="M22.2398 17.456V20.456C22.241 20.7345 22.1839 21.0102 22.0723 21.2653C21.9608 21.5205 21.7971 21.7496 21.5919 21.9379C21.3867 22.1261 21.1444 22.2695 20.8806 22.3587C20.6168 22.4479 20.3372 22.4811 20.0598 22.456C16.9827 22.1216 14.0268 21.0701 11.4298 19.386C9.01366 17.8507 6.96517 15.8022 5.42983 13.386C3.73981 10.7772 2.68807 7.80698 2.35983 4.71599C2.33484 4.43945 2.36771 4.16075 2.45633 3.89761C2.54496 3.63447 2.6874 3.39267 2.8746 3.18761C3.06179 2.98254 3.28964 2.81869 3.54362 2.70651C3.79761 2.59432 4.07217 2.53625 4.34983 2.53599H7.34983C7.83514 2.53121 8.30562 2.70306 8.67359 3.01952C9.04156 3.33597 9.28191 3.77543 9.34983 4.25599C9.47645 5.21605 9.71128 6.15871 10.0498 7.06599C10.1844 7.42391 10.2135 7.8129 10.1337 8.18687C10.054 8.56083 9.86869 8.9041 9.59983 9.17599L8.32983 10.446C9.75339 12.9495 11.8263 15.0224 14.3298 16.446L15.5998 15.176C15.8717 14.9071 16.215 14.7218 16.589 14.6421C16.9629 14.5623 17.3519 14.5914 17.7098 14.726C18.6171 15.0645 19.5598 15.2994 20.5198 15.426C21.0056 15.4945 21.4492 15.7392 21.7664 16.1135C22.0835 16.4878 22.252 16.9656 22.2398 17.456Z" stroke="#0C1D3E" stroke-width="2" stroke-linecap="round" stroke-linejoin="round"/>
</svg>
